# xmcd
#
# Track frame offsets:
#	150
#	15968
#	36226
#	55483
#	71844
#	89280
#	104011
#	123239
#	142076
#	162650
#	182662
#	199653
#	216980
#	235626
#	251267
#	271945
#	290634
#	315791
#
# Disc length: 4476 seconds
#
# Revision: 0
# Processed by: cddbd v1.5.2PL0 Copyright (c) Steve Scherf et al.
# Submitted via: EasyCDDAExtractor 12.0.7.1
#
DISCID=07117a12
DTITLE=Денис Майданов - Аллея шансона
DYEAR=2011
DGENRE=Chanson
TTITLE0=Вечная любовь
TTITLE1=Оранжевое солнце
TTITLE2=Я возвращаюсь домой
TTITLE3=48 часов
TTITLE4=Комната на краю земли
TTITLE5=Антишок
TTITLE6=Время-наркотик
TTITLE7=Выше неба
TTITLE8=Осторожно... любовь
TTITLE9=Пуля
TTITLE10=Ничего не жаль
TTITLE11=Я богат
TTITLE12=Дом
TTITLE13=Молодым умирать не страшно
TTITLE14=Арендованный мир
TTITLE15=Дай мне огонь
TTITLE16=Растают следы...
TTITLE17=Я верю в любовь
EXTD=
EXTT0=
EXTT1=
EXTT2=
EXTT3=
EXTT4=
EXTT5=
EXTT6=
EXTT7=
EXTT8=
EXTT9=
EXTT10=
EXTT11=
EXTT12=
EXTT13=
EXTT14=
EXTT15=
EXTT16=
EXTT17=
PLAYORDER=
